<?xml version="1.0" encoding="UTF-8"?>
<svg xmlns="http://www.w3.org/2000/svg" version="1.1" viewBox="0 0 210 210">
  <defs>
    <style>
      .cls-1 {
        fill: #ff42ff;
      }
    </style>
  </defs>
  <!-- Generator: Adobe Illustrator 28.7.1, SVG Export Plug-In . SVG Version: 1.2.0 Build 142)  -->
  <g>
    <g id="Layer_1">
      <g>
        <circle class="cls-1" cx="46.91" cy="118.96" r="3.4"/>
        <path class="cls-1" d="M52.04,110.96h-10.26c-1.57,0-2.84,1.27-2.84,2.84v10.31c0,1.57,1.27,2.84,2.84,2.84h10.26c1.57,0,2.84-1.27,2.84-2.84v-10.31c0-1.57-1.27-2.84-2.84-2.84ZM46.91,124.26c-2.93,0-5.3-2.37-5.3-5.3s2.37-5.3,5.3-5.3,5.3,2.37,5.3,5.3-2.37,5.3-5.3,5.3ZM52.41,114.78c-.67,0-1.22-.55-1.22-1.22s.55-1.22,1.22-1.22,1.22.55,1.22,1.22-.55,1.22-1.22,1.22Z"/>
      </g>
      <g>
        <path class="cls-1" d="M85.75,117.16c-.41,0-.75.33-.75.75s.33.75.75.75.75-.33.75-.75-.33-.75-.75-.75Z"/>
        <path class="cls-1" d="M91.28,110.96h-13.31c-1.5,0-2.72,1.23-2.72,2.74v7.68c0,1.52,1.22,2.74,2.72,2.74h4.42l1.82,2.62c.2.29.63.29.83,0l1.82-2.62h4.42c1.5,0,2.72-1.23,2.72-2.74v-7.68c0-1.52-1.22-2.74-2.72-2.74ZM79.48,119.7c-.39,0-.75-.17-1.03-.44v.38h-1.15v-4.85h1.15v1.75c.28-.27.63-.44,1.03-.44.88,0,1.59.81,1.59,1.8s-.71,1.8-1.59,1.8ZM83,116.27v3.27h-1.12v-3.27s0-.21-.16-.37c-.16-.16-.3-.19-.3-.19v-1.1s.65-.05,1.17.47c.51.51.42,1.19.42,1.19ZM85.75,119.71c-1.08,0-1.96-.81-1.96-1.81s.88-1.81,1.96-1.81,1.96.81,1.96,1.81-.88,1.81-1.96,1.81ZM92.01,119.83s-.03.75-.69,1.2c-.66.44-1.48.3-1.48.3v-1.02s.41.07.65-.07c.23-.14.38-.4.38-.4v-.7c-.29.3-.67.49-1.1.49-.88,0-1.59-.78-1.59-1.75s.71-1.75,1.59-1.75c.43,0,.81.19,1.1.49v-.35h1.14v3.57Z"/>
        <circle class="cls-1" cx="90.15" cy="117.91" r=".74"/>
        <path class="cls-1" d="M79.18,117.24c-.4,0-.73.33-.73.73s.33.73.73.73.73-.33.73-.73-.33-.73-.73-.73Z"/>
      </g>
      <path class="cls-1" d="M126.54,112.02h-13.3c-1.85,0-3.35,1.5-3.35,3.35v7.19c0,1.85,1.5,3.35,3.35,3.35h13.3c1.85,0,3.35-1.5,3.35-3.35v-7.19c0-1.85-1.5-3.35-3.35-3.35ZM118.39,121.38v-4.84l5,2.42-5,2.42Z"/>
    </g>
  </g>
</svg>